<svg xmlns="http://www.w3.org/2000/svg" width="272" height="272" viewBox="34 7 272 272"><path fill="#C4BFFB" d="M162.49 19.268C230.971 15.1066 289.847 67.2737 293.961 135.757C298.075 204.241 245.867 263.081 177.38 267.147C108.961 271.209 50.1916 219.063 46.0819 150.647C41.9721 82.231 94.0768 23.4252 162.49 19.268Z"/><path fill="#A39BF9" d="M162.8 34.5864C222.877 30.5998 274.787 76.122 278.678 136.205C282.569 196.287 236.964 248.125 176.875 251.921C116.922 255.708 65.2258 210.228 61.3434 150.28C57.461 90.3322 102.859 38.5642 162.8 34.5864Z"/><path fill="#5749F4" d="M93.7019 189.977C68.1498 148.243 80.8667 93.7225 122.247 67.5997C163.626 41.4769 218.316 53.4438 245.005 94.461C271.693 135.478 260.479 190.327 219.832 217.577C179.185 244.826 124.187 234.366 96.3822 194.097C95.4512 192.748 94.5575 191.375 93.7019 189.977Z"/><path fill="#F4F3F6" d="M168.228 106.378C188.563 105.387 205.854 121.06 206.861 141.394C207.868 161.729 192.21 179.033 171.876 180.057C151.519 181.082 134.19 165.401 133.182 145.043C132.174 124.685 147.869 107.369 168.228 106.378Z"/><path fill="#5749F4" d="M166.286 110.621C184.31 108.561 200.584 121.519 202.615 139.545C204.645 157.572 191.662 173.825 173.632 175.827C155.643 177.825 139.434 164.877 137.408 146.891C135.382 128.905 148.304 112.676 166.286 110.621Z"/><path fill="#F4F3F6" d="M169.492 116.67C184.148 116.379 196.271 128.013 196.584 142.668C196.896 157.324 185.281 169.464 170.626 169.798C155.94 170.133 143.769 158.488 143.456 143.802C143.142 129.116 154.806 116.962 169.492 116.67Z"/><path fill="#5749F4" d="M168.627 127.002C168.9 126.995 169.173 126.993 169.446 126.997C170.472 127.014 170.937 127.066 171.639 127.785C172.165 128.736 172.002 129.887 171.974 131.005C173.876 130.861 176.857 130.483 178 132.233C178.598 138.434 162.19 130.512 166.952 140.673C168.738 141.015 171.627 141.152 173.235 141.699C175.132 142.331 176.694 143.702 177.566 145.502C178.349 147.116 178.497 148.926 177.915 150.632C176.904 153.591 174.51 154.418 171.896 155.716C171.926 157.433 172.053 158.167 171.067 159.623C167.973 159.966 168.138 158.065 167.964 155.561C165.972 155.6 162.884 155.948 161.753 154.096C161.624 149.491 171.409 152.054 172.415 151.134C179.642 144.518 163.541 146.247 162.069 140.545C160.61 134.893 164.097 132.498 168.099 130.625C168.157 129.234 168.112 128.288 168.627 127.002Z"/><path fill="#F4F3F6" d="M209.089 155.42C217.75 155.696 219.17 157.048 219.158 165.672C221.703 167.494 224.774 168.905 225.323 172.287C226.234 177.904 222.587 181.169 217.575 182.243C216.412 182.086 215.336 181.947 214.235 181.526C212.231 180.771 210.61 179.25 209.728 177.299C208.849 175.357 208.807 173.14 209.611 171.165C210.635 168.644 212.589 167.116 215.034 166.109L214.98 160.082C212.742 159.931 209.67 159.811 207.469 159.972C208.039 158.617 208.599 156.837 209.089 155.42Z"/><path fill="#5749F4" d="M216.67 170.066C218.842 169.749 220.863 171.245 221.194 173.415C221.525 175.585 220.042 177.616 217.874 177.961C215.686 178.309 213.633 176.81 213.299 174.62C212.965 172.429 214.478 170.386 216.67 170.066Z"/><path fill="#F4F3F6" d="M153.415 180.883C154.693 181.221 156.635 181.928 157.946 182.356C157.951 182.574 157.952 182.792 157.949 183.01C157.861 191.127 154.922 192.732 147.251 192.457C144.269 199.283 137.862 200.831 132.648 195.256C130.432 191.89 130.452 187.858 133.347 184.843C136.188 181.98 141.823 181.374 144.699 184.47C145.16 184.852 147.007 188.102 147.498 188.179C155.142 189.381 153.823 183.963 153.415 180.883Z"/><path fill="#5749F4" d="M138.05 186.606C140.17 185.965 142.408 187.163 143.049 189.283C143.691 191.402 142.494 193.64 140.375 194.283C138.255 194.926 136.014 193.728 135.372 191.607C134.73 189.487 135.929 187.247 138.05 186.606Z"/><path fill="#F4F3F6" d="M121.088 104.267C128.98 103.805 134.127 110.676 128.891 117.529C127.949 118.761 126.314 119.678 124.97 120.484C124.906 127.312 125.959 127.068 132.321 126.981L130.944 130.844C127.352 132.419 123.744 129.952 121.392 127.429C120.848 124.774 120.794 123.074 120.962 120.406C118.371 119.139 116.3 117.81 115.133 115.003C114.362 113.169 114.38 111.1 115.18 109.279C116.329 106.644 118.531 105.285 121.088 104.267Z"/><path fill="#5749F4" d="M121.444 108.629C122.835 108.136 124.384 108.441 125.486 109.424C126.587 110.407 127.064 111.912 126.731 113.351C126.398 114.789 125.308 115.931 123.887 116.33C121.788 116.92 119.6 115.739 118.941 113.661C118.282 111.584 119.389 109.357 121.444 108.629Z"/><path fill="#F4F3F6" d="M199.357 87.7395C201.927 87.6537 204.24 88.0366 206.169 89.8746C207.511 91.2955 208.807 93.0921 208.94 95.0696C209.303 100.477 205.427 104.362 200.016 104.156C195.936 104 195.03 100.933 192.56 98.2923C192.003 97.6965 191.425 97.8419 190.69 97.8324C185.321 98.5008 185.949 100.981 186.545 105.528C184.603 104.946 183.819 104.648 181.982 103.821C182.528 95.1601 184.091 94.1009 192.782 93.9685C194.512 90.2325 195.687 89.3868 199.357 87.7395Z"/><path fill="#5749F4" d="M200.082 92.1179C201.478 91.8241 202.924 92.3026 203.869 93.371C204.814 94.4393 205.112 95.9329 204.65 97.2823C204.188 98.6317 203.037 99.6289 201.635 99.8937C199.499 100.297 197.436 98.906 197.011 96.7743C196.585 94.6427 197.955 92.5657 200.082 92.1179Z"/><path fill="#F4F3F6" d="M127.085 155.535C128.166 155.457 129.788 155.479 130.913 155.457C131.425 156.941 131.946 158.421 132.477 159.898C130.601 159.766 127.023 159.977 125.026 160.039C124.98 162.131 125.008 164.033 125.066 166.126C127.246 167.182 128.88 168.157 130.096 170.368C131.076 172.17 131.275 174.295 130.645 176.248C129.819 178.889 127.916 180.46 125.573 181.724C122.072 182.895 117.688 181.444 115.762 178.237C114.679 176.438 114.378 174.274 114.931 172.248C115.823 168.991 118.23 167.366 120.927 165.792C120.401 159.991 121.25 157.095 127.085 155.535Z"/><path fill="#5749F4" d="M122.239 170.065C124.42 169.758 126.44 171.274 126.754 173.455C127.068 175.636 125.558 177.66 123.378 177.98C122.224 178.15 121.054 177.808 120.173 177.043C119.293 176.278 118.791 175.166 118.798 174C118.81 172.017 120.274 170.342 122.239 170.065Z"/><path fill="#F4F3F6" d="M185.565 181.275C185.88 181.312 185.835 181.351 186.141 181.557C186.472 182.682 186.571 186.025 186.676 187.466C188.977 188.453 190.284 188.373 192.775 188.509C193.846 186.192 195.162 184.296 197.531 183.162C199.499 182.24 201.757 182.159 203.785 182.938C208.752 184.798 209.83 189.536 208.029 194.146C207.084 195.632 205.853 196.929 204.277 197.746C202.471 198.687 200.358 198.846 198.432 198.187C195.503 197.183 194.146 195.123 192.842 192.53C190.326 192.592 187.798 192.726 185.539 191.408C182.717 189.76 180.913 185.636 182.681 182.638C183.245 181.682 184.573 181.498 185.565 181.275Z"/><path fill="#5749F4" d="M199.804 186.626C201.207 186.248 202.705 186.665 203.711 187.713C204.718 188.761 205.074 190.274 204.639 191.661C204.205 193.048 203.05 194.088 201.625 194.375C199.518 194.799 197.455 193.475 196.963 191.382C196.471 189.29 197.729 187.185 199.804 186.626Z"/><path fill="#F4F3F6" d="M215.535 104.274C217.116 104.184 218.224 104.211 219.707 104.672C224.834 106.267 227.149 112.676 223.803 117.007C222.334 118.909 221.127 119.481 219.048 120.48C219.544 126.888 218.963 129.851 212.188 130.987L209.036 131.016C208.652 129.688 208.183 128.319 207.753 127C210.246 127.041 213.813 127.836 214.782 124.886C216.904 118.427 211.76 120.191 209.699 115.509C207.44 110.376 210.906 106.274 215.535 104.274Z"/><path fill="#5749F4" d="M215.876 108.643C217.979 107.868 220.31 108.952 221.073 111.059C221.836 113.167 220.738 115.492 218.626 116.242C216.532 116.987 214.23 115.9 213.473 113.81C212.717 111.72 213.791 109.411 215.876 108.643Z"/><path fill="#F4F3F6" d="M138.69 87.8167C143.127 87.6994 145.394 90.1285 147.064 93.9339C156.046 94.0105 157.285 95.3065 158.121 103.887L153.537 105.781C153.567 105.55 153.592 105.318 153.611 105.086C153.775 103.202 153.928 99.5406 152.621 98.0139C150.767 97.9761 148.775 98.0176 146.91 98.0243C145.341 103.227 140.194 106.027 135.331 102.984C133.293 101.706 131.849 99.6683 131.318 97.3221C130.143 91.9228 133.816 88.8702 138.69 87.8167Z"/><path fill="#5749F4" d="M138.095 92.0872C140.216 91.4881 142.425 92.7039 143.053 94.8163C143.681 96.9287 142.495 99.1537 140.392 99.8106C139.005 100.244 137.493 99.8967 136.434 98.9027C135.374 97.9087 134.932 96.4215 135.276 95.0102C135.62 93.599 136.697 92.4822 138.095 92.0872Z"/><path fill="#F4F3F6" d="M222.275 135.039C225.158 134.791 228.197 136.047 229.925 138.398C231.243 140.189 231.769 142.441 231.38 144.629C230.455 149.843 225.938 152.031 221.004 151.081C220.861 151.019 220.719 150.956 220.579 150.889C217.458 149.41 216.752 148.324 215.618 145.221L210.974 145.092L210.98 140.999L215.602 140.977C215.846 140.391 216.107 139.812 216.383 139.239C217.633 136.704 219.774 135.866 222.275 135.039Z"/><path fill="#F4F3F6" d="M116.004 135.031C120.176 134.776 122.974 137.149 124.256 140.962L129.056 140.986L129.023 145.183C127.283 145.089 126.297 145.134 124.562 145.255C123.52 147.75 122.79 148.49 120.701 150.232C120.024 150.599 119.309 150.892 118.568 151.106C109.433 153.792 102.656 138.401 116.004 135.031Z"/><path fill="#F4F3F6" d="M167.989 184.216L172.025 184.255C171.993 186.063 171.928 187.026 171.661 188.811C171.839 188.855 172.016 188.902 172.192 188.953C177.663 190.511 180.213 196.997 176.448 201.439C175.015 203.13 174.245 203.652 172.276 204.662C170.231 204.866 168.774 204.889 166.885 204.084C164.854 203.222 163.256 201.577 162.456 199.521C161.71 197.571 161.766 195.406 162.612 193.498C163.641 191.176 165.676 189.516 168.026 188.643L167.989 184.216Z"/><path fill="#F4F3F6" d="M169.445 81.5475C172.506 81.4531 175.728 83.14 177.2 85.8632C178.182 87.6603 178.4 89.7769 177.804 91.7363C176.862 94.7659 174.7 96.4062 172.021 97.8161C172.038 99.2542 172.521 101.828 170.94 102.132L168.141 101.955C168.147 100.719 168.012 99.1565 167.939 97.8986L167.706 97.7729C165.077 96.3297 162.889 94.4806 162.072 91.4644C161.551 89.5909 161.824 87.5861 162.824 85.919C164.271 83.4951 166.787 82.1957 169.445 81.5475Z"/></svg>